<svg width="16" height="16" viewBox="0 0 16 16" fill="none" xmlns="http://www.w3.org/2000/svg">
<path d="M10.5408 2.93029L10.5482 2.94776L10.557 2.96462L11.3552 4.49447C11.4514 4.68546 11.5865 4.85836 11.773 4.98269C11.964 5.11002 12.1795 5.16667 12.4003 5.16667H12.667C13.8575 5.16667 14.8337 6.14281 14.8337 7.33333V11.3333C14.8337 12.5239 13.8575 13.5 12.667 13.5H3.33366C2.14313 13.5 1.16699 12.5239 1.16699 11.3333V7.33333C1.16699 6.14281 2.14313 5.16667 3.33366 5.16667H3.60033C3.82115 5.16667 4.03668 5.11002 4.22768 4.98269C4.41554 4.85745 4.55122 4.68292 4.64754 4.49027L4.64761 4.49031L4.65139 4.48239L5.3761 2.96709C5.56026 2.65586 5.86167 2.5 6.13366 2.5H9.80033C10.1687 2.5 10.4325 2.67767 10.5408 2.93029ZM4.83366 8.66667C4.83366 10.4095 6.25752 11.8333 8.00033 11.8333C9.74313 11.8333 11.167 10.4095 11.167 8.66667C11.167 6.92386 9.74313 5.5 8.00033 5.5C6.25752 5.5 4.83366 6.92386 4.83366 8.66667Z" stroke="#868686"/>
</svg>
