<svg width="24" height="24" viewBox="0 0 24 24" fill="none" xmlns="http://www.w3.org/2000/svg">
<path d="M12.8995 2.59994L15.1995 7.59994C15.2995 7.89994 15.5995 8.09994 15.8995 8.19994L21.0995 8.99994C21.9995 8.99994 22.2995 9.99994 21.6995 10.5999L17.8995 14.4999C17.6995 14.6999 17.5995 15.0999 17.5995 15.3999L18.4995 20.7999C18.5995 21.5999 17.7995 22.2999 17.0995 21.8999L12.3995 19.2999C12.0995 19.0999 11.7995 19.0999 11.4995 19.2999L6.79952 21.8999C6.09952 22.2999 5.19952 21.6999 5.39952 20.7999L6.29952 15.3999C6.39952 15.0999 6.19952 14.6999 5.99952 14.4999L2.19952 10.5999C1.69952 9.99994 1.99952 8.99994 2.79952 8.89994L7.99952 8.09994C8.29952 8.09994 8.59952 7.79994 8.69952 7.49994L10.9995 2.49994C11.4995 1.79994 12.4995 1.79994 12.8995 2.59994Z" fill="#E0C536"/>
</svg>
