<svg width="24" height="24" viewBox="0 0 24 24" fill="none" xmlns="http://www.w3.org/2000/svg">
<path d="M19 1H5C3.93913 1 2.92172 1.42143 2.17157 2.17157C1.42143 2.92172 1 3.93913 1 5V19C1 20.0609 1.42143 21.0783 2.17157 21.8284C2.92172 22.5786 3.93913 23 5 23H19C20.0609 23 21.0783 22.5786 21.8284 21.8284C22.5786 21.0783 23 20.0609 23 19V5C23 3.93913 22.5786 2.92172 21.8284 2.17157C21.0783 1.42143 20.0609 1 19 1V1ZM7 5C7.39556 5 7.78224 5.1173 8.11114 5.33706C8.44004 5.55682 8.69638 5.86918 8.84776 6.23463C8.99913 6.60009 9.03874 7.00222 8.96157 7.39018C8.8844 7.77814 8.69392 8.13451 8.41421 8.41421C8.13451 8.69392 7.77814 8.8844 7.39018 8.96157C7.00222 9.03874 6.60009 8.99913 6.23463 8.84776C5.86918 8.69638 5.55682 8.44004 5.33706 8.11114C5.1173 7.78224 5 7.39556 5 7C5 6.46957 5.21071 5.96086 5.58579 5.58579C5.96086 5.21071 6.46957 5 7 5V5ZM19.707 14.707C19.5195 14.8945 19.2652 14.9998 19 14.9998C18.7348 14.9998 18.4805 14.8945 18.293 14.707L16.049 12.463L12.984 15.963L12.977 15.974H12.971L9.753 19.659C9.57822 19.8587 9.33127 19.9808 9.06647 19.9984C8.80167 20.0161 8.54071 19.9278 8.341 19.753C8.14129 19.5782 8.01919 19.3313 8.00156 19.0665C7.98394 18.8017 8.07222 18.5407 8.247 18.341L10.9 15.312L9 13.414L5.707 16.707C5.5184 16.8892 5.2658 16.99 5.0036 16.9877C4.7414 16.9854 4.49059 16.8802 4.30518 16.6948C4.11977 16.5094 4.0146 16.2586 4.01233 15.9964C4.01005 15.7342 4.11084 15.4816 4.293 15.293L8.293 11.293C8.48053 11.1055 8.73484 11.0002 9 11.0002C9.26516 11.0002 9.51947 11.1055 9.707 11.293L12.217 13.804L15.247 10.341C15.3375 10.2381 15.448 10.1548 15.5718 10.0962C15.6956 10.0376 15.8301 10.0048 15.967 10C16.1042 9.99282 16.2412 10.0153 16.3689 10.0658C16.4966 10.1164 16.6119 10.1939 16.707 10.293L19.707 13.293C19.8945 13.4805 19.9998 13.7348 19.9998 14C19.9998 14.2652 19.8945 14.5195 19.707 14.707V14.707Z" fill="#BC4848"/>
</svg>
