<svg width="16" height="16" viewBox="0 0 16 16" fill="none" xmlns="http://www.w3.org/2000/svg">
<g clip-path="url(#clip0_15_107)">
<path d="M2.53723 3.07764C2.45723 3.07764 0.469727 4.59764 0.469727 7.82764C0.469727 11.1545 2.40035 12.9076 2.50973 12.9208C2.6191 12.9339 3.5366 12.072 3.5366 12.0033C3.5366 11.9345 1.85223 10.7164 1.85223 7.92326C1.85223 5.13014 3.52285 4.09014 3.52285 3.99514C3.52285 3.93764 2.7566 3.07764 2.53723 3.07764Z" fill="#191919"/>
<path d="M2.51848 13.4231C2.49466 13.4232 2.47086 13.4217 2.44723 13.4187C2.34473 13.4062 2.18973 13.3869 1.77285 12.9231C1.48517 12.5985 1.23155 12.2452 1.01598 11.8687C0.539102 11.0456 -0.0302734 9.67688 -0.0302734 7.82875C-0.0302734 6.025 0.559102 4.73438 1.05348 3.97C1.27642 3.62171 1.53717 3.29913 1.83098 3.00813C2.26848 2.57813 2.42473 2.57812 2.53723 2.57812C2.75535 2.57812 2.98723 2.67625 3.46848 3.16563C4.02285 3.72813 4.02285 3.84625 4.02285 3.99563C4.02285 4.22812 3.8866 4.355 3.75473 4.4775C3.40785 4.80062 2.35223 5.78313 2.35223 7.925C2.35223 9.38875 2.84035 10.6125 3.80285 11.5569C3.91223 11.6644 4.0366 11.7863 4.0366 12.0056C4.0366 12.1862 4.0366 12.3062 3.27285 12.98C2.91535 13.295 2.72973 13.4231 2.51848 13.4231ZM2.57098 3.6875C2.10473 4.12812 0.969727 5.44813 0.969727 7.82875C0.969727 10.2994 2.07598 11.7662 2.5491 12.2837C2.64535 12.2006 2.7541 12.1012 2.85223 12.0087C1.85723 10.9087 1.35223 9.53625 1.35223 7.92438C1.35223 6.32938 1.85598 4.99875 2.85223 3.96438C2.75973 3.86812 2.65848 3.76688 2.57098 3.6875Z" fill="#191919"/>
<path d="M4.67265 4.9126C4.57578 4.9126 3.31703 5.70697 3.28953 7.8426C3.2614 10.0332 4.52203 11.1151 4.60203 11.1288C4.68203 11.1426 5.49203 10.2938 5.49203 10.2251C5.49203 10.1563 4.52453 9.4851 4.57453 8.00697C4.62953 6.39135 5.50578 5.84385 5.50578 5.7751C5.50578 5.70635 4.79578 4.9126 4.67265 4.9126Z" fill="#191919"/>
<path d="M4.6081 11.629C4.57919 11.6289 4.55034 11.6264 4.52185 11.6215C4.06247 11.5452 3.4806 10.5652 3.47497 10.5559C3.15372 10.0109 2.77372 9.09586 2.78747 7.83586C2.80372 6.58961 3.2081 5.76148 3.54497 5.28711C3.75935 4.98461 4.27122 4.41211 4.66997 4.41211C4.90435 4.41211 5.0906 4.53711 5.49935 4.97461C5.95747 5.46523 6.0056 5.59461 6.0056 5.77273C6.0056 5.99211 5.87497 6.12211 5.78872 6.21023C5.60122 6.39773 5.11247 6.88461 5.07435 8.02273C5.05797 8.34947 5.11205 8.67592 5.23294 8.97991C5.35383 9.28391 5.53869 9.55835 5.77497 9.78461C5.87247 9.88523 5.99435 10.0102 5.99435 10.2221C5.99435 10.434 5.9031 10.5584 5.56685 10.9184C5.40195 11.0974 5.22819 11.268 5.04622 11.4296C4.96247 11.504 4.81247 11.629 4.6081 11.629ZM4.6506 5.53336C4.34872 5.81461 3.80685 6.50648 3.78997 7.84586C3.77247 9.21898 4.30622 10.0715 4.62497 10.4577C4.69497 10.3877 4.76872 10.3109 4.83622 10.239C4.30752 9.61212 4.03636 8.808 4.07747 7.98898C4.11747 6.81273 4.54997 6.11398 4.8556 5.74961C4.78935 5.67711 4.71685 5.60023 4.6506 5.53336Z" fill="#191919"/>
<path d="M13.4632 3.07764C13.5432 3.07764 15.5307 4.59764 15.5307 7.82764C15.5307 11.1545 13.6001 12.9076 13.4907 12.9208C13.3814 12.9339 12.4639 12.072 12.4639 12.0033C12.4639 11.9345 14.1482 10.7164 14.1482 7.92326C14.1482 5.13014 12.4776 4.08826 12.4776 3.99389C12.4776 3.93764 13.2439 3.07764 13.4632 3.07764Z" fill="#191919"/>
<path d="M13.4814 13.4233C13.2701 13.4233 13.0851 13.2983 12.7276 12.9795C11.9639 12.3051 11.9639 12.1858 11.9639 12.0051C11.9639 11.7864 12.0889 11.6645 12.1976 11.5564C13.1601 10.6101 13.6482 9.38826 13.6482 7.92451C13.6482 5.78264 12.5926 4.79951 12.2457 4.47701C12.1139 4.35201 11.9776 4.22701 11.9776 3.99514C11.9776 3.84576 11.9776 3.72826 12.532 3.16514C13.0139 2.67576 13.2451 2.57764 13.4632 2.57764C13.5751 2.57764 13.7289 2.57764 14.1695 3.00764C14.4633 3.29864 14.7241 3.62122 14.947 3.96951C15.4414 4.73451 16.0307 6.02451 16.0307 7.82826C16.0307 9.67639 15.462 11.0451 14.9845 11.8683C14.7689 12.2445 14.5153 12.5976 14.2276 12.922C13.8107 13.3851 13.6557 13.4045 13.5526 13.4176C13.529 13.421 13.5052 13.4229 13.4814 13.4233ZM13.1482 12.0095C13.2457 12.102 13.3551 12.2014 13.4514 12.2845C13.9245 11.7701 15.0307 10.3001 15.0307 7.82951C15.0307 5.44889 13.8957 4.12889 13.4295 3.68826C13.342 3.76764 13.242 3.86889 13.1495 3.96514C14.1439 4.99951 14.6495 6.33014 14.6495 7.92514C14.6476 9.53639 14.1439 10.9089 13.1482 12.0089V12.0095Z" fill="#191919"/>
<path d="M11.3273 4.9126C11.4241 4.9126 12.6829 5.70697 12.7104 7.8426C12.7385 10.0332 11.4779 11.1151 11.3979 11.1288C11.3179 11.1426 10.5079 10.2938 10.5079 10.2251C10.5079 10.1563 11.4754 9.4851 11.4254 8.00697C11.3704 6.39135 10.4941 5.84385 10.4941 5.7751C10.4941 5.70635 11.2041 4.9126 11.3273 4.9126Z" fill="#191919"/>
<path d="M11.3916 11.6287C11.1853 11.6287 11.0378 11.5037 10.9541 11.4318C10.7721 11.2702 10.5983 11.0995 10.4334 10.9205C10.0972 10.5599 10.0059 10.433 10.0059 10.2243C10.0059 10.0155 10.1278 9.88428 10.2253 9.78678C10.461 9.56043 10.6453 9.28609 10.7657 8.98234C10.8862 8.67858 10.94 8.3525 10.9234 8.02615C10.8847 6.8874 10.3941 6.3974 10.2091 6.21365C10.1228 6.1274 9.99219 5.9974 9.99219 5.77615C9.99219 5.59803 10.0403 5.46865 10.4984 4.97803C10.9072 4.54053 11.0934 4.41553 11.3278 4.41553C11.7272 4.41553 12.2384 4.98803 12.4528 5.29053C12.7897 5.76553 13.1941 6.59303 13.2103 7.83928C13.2266 9.09928 12.8466 10.0137 12.5228 10.5593C12.5172 10.5693 11.9347 11.5487 11.4759 11.6249C11.448 11.6284 11.4197 11.6297 11.3916 11.6287ZM11.1634 10.238C11.2309 10.3099 11.3047 10.3868 11.3747 10.4568C11.6941 10.0712 12.2272 9.21803 12.2097 7.84803C12.1928 6.50553 11.6509 5.81428 11.3491 5.53553C11.2828 5.6024 11.2103 5.67928 11.1441 5.7524C11.4503 6.11928 11.8822 6.8149 11.9222 7.99178C11.9625 8.80974 11.6914 9.61259 11.1634 10.2387V10.238Z" fill="#191919"/>
<path d="M9.44152 8.00697C9.44152 8.9551 8.8059 9.78635 7.76715 9.72385C6.84402 9.66822 6.09277 8.9551 6.09277 8.00697C6.09277 7.05885 6.76527 6.3151 7.76715 6.2901C8.75652 6.26572 9.44152 7.05885 9.44152 8.00697Z" fill="#191919"/>
<path d="M7.87902 10.2268C7.83236 10.2268 7.78506 10.2254 7.73715 10.2224C6.51465 10.1487 5.59277 9.19619 5.59277 8.00682C5.59277 6.75682 6.50215 5.81932 7.75465 5.78994C8.03466 5.77978 8.31383 5.82637 8.57537 5.92691C8.83691 6.02744 9.07541 6.17984 9.27652 6.37494C9.49 6.58906 9.65878 6.84349 9.77305 7.12343C9.88732 7.40336 9.9448 7.70322 9.94215 8.00556C9.94215 8.66557 9.69215 9.28057 9.25465 9.69306C8.8831 10.0433 8.38957 10.2348 7.87902 10.2268ZM7.81215 6.78931H7.77965C7.0809 6.80682 6.59215 7.30744 6.59215 8.00619C6.59215 8.65869 7.11027 9.18244 7.79652 9.22369C7.93601 9.23744 8.07683 9.22142 8.20967 9.17671C8.34252 9.132 8.46436 9.05961 8.56715 8.96431C8.80465 8.74056 8.94215 8.39119 8.94215 8.00556C8.9451 7.83657 8.91446 7.66866 8.85202 7.51159C8.78958 7.35452 8.69657 7.21141 8.5784 7.09056C8.47693 6.99237 8.35705 6.91521 8.22566 6.86351C8.09427 6.81181 7.95395 6.78659 7.81277 6.78931H7.81215Z" fill="#191919"/>
<path d="M2.53723 3.07764C2.45723 3.07764 0.469727 4.59764 0.469727 7.82764C0.469727 11.1545 2.40035 12.9076 2.50973 12.9208C2.6191 12.9339 3.5366 12.072 3.5366 12.0033C3.5366 11.9345 1.85223 10.7164 1.85223 7.92326C1.85223 5.13014 3.52285 4.09014 3.52285 3.99514C3.52285 3.93764 2.7566 3.07764 2.53723 3.07764Z" fill="white"/>
<path d="M4.67265 4.9126C4.57578 4.9126 3.31703 5.70697 3.28953 7.8426C3.2614 10.0332 4.52203 11.1151 4.60203 11.1288C4.68203 11.1426 5.49203 10.2938 5.49203 10.2251C5.49203 10.1563 4.52453 9.4851 4.57453 8.00697C4.62953 6.39135 5.50578 5.84385 5.50578 5.7751C5.50578 5.70635 4.79578 4.9126 4.67265 4.9126Z" fill="white"/>
<path d="M13.4632 3.07764C13.5432 3.07764 15.5307 4.59764 15.5307 7.82764C15.5307 11.1545 13.6001 12.9076 13.4907 12.9208C13.3814 12.9339 12.4639 12.072 12.4639 12.0033C12.4639 11.9345 14.1482 10.7164 14.1482 7.92326C14.1482 5.13014 12.4776 4.08826 12.4776 3.99389C12.4776 3.93764 13.2439 3.07764 13.4632 3.07764Z" fill="white"/>
<path d="M11.3273 4.9126C11.4241 4.9126 12.6829 5.70697 12.7104 7.8426C12.7385 10.0332 11.4779 11.1151 11.3979 11.1288C11.3179 11.1426 10.5079 10.2938 10.5079 10.2251C10.5079 10.1563 11.4754 9.4851 11.4254 8.00697C11.3704 6.39135 10.4941 5.84385 10.4941 5.7751C10.4941 5.70635 11.2041 4.9126 11.3273 4.9126Z" fill="white"/>
<path d="M9.44152 8.00697C9.44152 8.9551 8.8059 9.78635 7.76715 9.72385C6.84402 9.66822 6.09277 8.9551 6.09277 8.00697C6.09277 7.05885 6.76527 6.3151 7.76715 6.2901C8.75652 6.26572 9.44152 7.05885 9.44152 8.00697Z" fill="#E52727"/>
</g>
<defs>
<clipPath id="clip0_15_107">
<rect width="16" height="16" fill="white"/>
</clipPath>
</defs>
</svg>
