<svg width="32" height="32" viewBox="0 0 32 32" fill="none" xmlns="http://www.w3.org/2000/svg">
<path d="M23.5297 27.8906C23.3961 27.8907 23.264 27.8621 23.1423 27.8069C23.0206 27.7517 22.9121 27.6712 22.8241 27.5706L19.7941 24.1087C18.575 24.4224 17.321 24.5801 16.0622 24.5781C12.7078 24.5781 9.54656 23.4887 7.16094 21.5112C4.72344 19.4912 3.38281 16.7906 3.38281 13.9062C3.38281 11.0219 4.72469 8.32125 7.16094 6.30125C9.54656 4.32375 12.7078 3.23438 16.0622 3.23438C19.4166 3.23438 22.5772 4.32375 24.9628 6.30125C27.4003 8.32125 28.7409 11.0219 28.7409 13.9062C28.7409 16.9856 27.1897 19.8744 24.4672 21.9013V26.9531C24.4672 27.2018 24.3684 27.4402 24.1926 27.616C24.0168 27.7919 23.7783 27.8906 23.5297 27.8906V27.8906ZM20.1097 22.1087C20.2433 22.1087 20.3754 22.1373 20.4971 22.1924C20.6188 22.2476 20.7273 22.3282 20.8153 22.4287L22.5922 24.4587V21.4181C22.5921 21.2657 22.6292 21.1156 22.7002 20.9808C22.7712 20.846 22.874 20.7305 22.9997 20.6444C25.4566 18.9644 26.8653 16.5081 26.8653 13.9062C26.8653 9.05562 22.0184 5.10938 16.0616 5.10938C10.1047 5.10938 5.25781 9.05562 5.25781 13.9062C5.25781 18.7569 10.1047 22.7031 16.0622 22.7031C17.3408 22.7061 18.6127 22.5195 19.8366 22.1494C19.9252 22.1227 20.0172 22.109 20.1097 22.1087Z" fill="#868686"/>
<path d="M19.9855 11.2231H12.1387C11.89 11.2231 11.6516 11.1244 11.4758 10.9486C11.2999 10.7727 11.2012 10.5343 11.2012 10.2856C11.2012 10.037 11.2999 9.79855 11.4758 9.62273C11.6516 9.44692 11.89 9.34814 12.1387 9.34814H19.9855C20.2342 9.34814 20.4726 9.44692 20.6485 9.62273C20.8243 9.79855 20.923 10.037 20.923 10.2856C20.923 10.5343 20.8243 10.7727 20.6485 10.9486C20.4726 11.1244 20.2342 11.2231 19.9855 11.2231Z" fill="#868686"/>
<path d="M19.9855 14.7607H12.1387C11.89 14.7607 11.6516 14.662 11.4758 14.4862C11.2999 14.3103 11.2012 14.0719 11.2012 13.8232C11.2012 13.5746 11.2999 13.3361 11.4758 13.1603C11.6516 12.9845 11.89 12.8857 12.1387 12.8857H19.9855C20.2342 12.8857 20.4726 12.9845 20.6485 13.1603C20.8243 13.3361 20.923 13.5746 20.923 13.8232C20.923 14.0719 20.8243 14.3103 20.6485 14.4862C20.4726 14.662 20.2342 14.7607 19.9855 14.7607V14.7607Z" fill="#868686"/>
<path d="M19.9855 18.2983H12.1387C11.89 18.2983 11.6516 18.1996 11.4758 18.0238C11.2999 17.8479 11.2012 17.6095 11.2012 17.3608C11.2012 17.1122 11.2999 16.8737 11.4758 16.6979C11.6516 16.5221 11.89 16.4233 12.1387 16.4233H19.9855C20.2342 16.4233 20.4726 16.5221 20.6485 16.6979C20.8243 16.8737 20.923 17.1122 20.923 17.3608C20.923 17.6095 20.8243 17.8479 20.6485 18.0238C20.4726 18.1996 20.2342 18.2983 19.9855 18.2983Z" fill="#868686"/>
</svg>
