<svg width="17" height="16" viewBox="0 0 17 16" fill="none" xmlns="http://www.w3.org/2000/svg">
<g clip-path="url(#clip0_15_103)">
<path d="M14.0473 0.97168H2.61872C1.35622 0.97168 0.333008 1.86699 0.333008 2.94355V12.9436C0.333008 14.0482 1.35622 14.9436 2.61872 14.9436H14.0473C15.3098 14.9436 16.333 14.0482 16.333 12.9436V2.94355C16.333 1.89512 15.308 0.97168 14.0473 0.97168ZM3.76158 4.4998C3.76158 4.22246 4.01604 3.9998 4.33301 3.9998H8.90444C9.2214 3.9998 9.47587 4.22246 9.47587 4.4998V5.4998C9.47587 5.77793 9.22229 5.9998 8.90444 5.9998H4.33301C4.01515 5.9998 3.76158 5.77793 3.76158 5.4998V4.4998ZM7.19015 11.4998C7.19015 11.7779 6.93658 11.9998 6.61872 11.9998H4.33301C4.01515 11.9998 3.76158 11.7779 3.76158 11.4998V10.4998C3.76158 10.2217 4.01515 9.9998 4.33301 9.9998H6.61872C6.93658 9.9998 7.19015 10.2217 7.19015 10.4998V11.4998ZM12.9044 8.4998C12.9044 8.77793 12.6509 8.9998 12.333 8.9998H4.33301C4.01515 8.9998 3.76158 8.77793 3.76158 8.4998V7.4998C3.76158 7.22168 4.01515 6.9998 4.33301 6.9998H12.333C12.6509 6.9998 12.9044 7.22168 12.9044 7.4998V8.4998Z" fill="#E0C536"/>
</g>
<defs>
<clipPath id="clip0_15_103">
<rect width="16" height="16" fill="white" transform="translate(0.333008)"/>
</clipPath>
</defs>
</svg>
