<svg width="24" height="24" viewBox="0 0 24 24" fill="none" xmlns="http://www.w3.org/2000/svg">
<path d="M1.46094 12.8779V13.374V22.2491H6.50977V20.9972L6.53124 21.0049C7.85093 21.4438 9.73826 21.834 11.6035 22.501L11.7422 22.5479L11.8789 22.5166C12.4651 22.3802 14.0445 21.8931 15.9277 21.2881C17.8109 20.6831 19.9593 19.9684 21.5566 19.417C22.321 19.1523 22.7321 18.2973 22.4512 17.5381C22.1559 16.7613 21.2996 16.412 20.5703 16.6358C19.9629 16.822 17.1121 17.7026 15.2402 18.255C15.2579 17.7211 15.3982 17.1437 14.9648 16.8038L14.9414 16.7804L14.9121 16.7686C12.8082 15.5134 12.6299 15.3507 9.67187 13.7785L9.53319 13.7101L9.38085 13.7258C8.36364 13.8349 6.63545 14.1209 6.50976 14.1418V12.878L1.46094 12.8779ZM9.33594 14.7413C12.0379 16.1803 12.3482 16.4 14.3457 17.591C14.6697 17.8451 14.756 18.1574 14.5605 18.4385C14.4556 18.5895 14.3457 18.6493 14.1934 18.6747C14.041 18.7021 13.8306 18.6669 13.5898 18.5613C12.6903 18.1456 12.2008 17.8805 11.207 17.323L10.7715 17.079L10.2832 17.9501L10.7188 18.1941C11.719 18.7551 12.2473 19.0476 13.1777 19.4773H13.1855C13.5657 19.6466 13.9668 19.7276 14.3613 19.6607C14.525 19.6334 14.6319 19.4664 14.7812 19.3854L14.7969 19.4304L15.2773 19.2935C17.1516 18.7447 20.2363 17.7899 20.8613 17.5982V17.5904C21.0976 17.518 21.4167 17.6373 21.5117 17.8872C21.6001 18.1378 21.4848 18.3805 21.2285 18.4692C19.642 19.0169 17.4979 19.7296 15.6211 20.3325C13.7913 20.9203 12.243 21.3892 11.7559 21.5083C9.87866 20.8564 8.01321 20.4454 6.84569 20.0571L6.50976 19.9496V15.1528L6.59374 15.1409C6.59374 15.1409 8.31975 14.8618 9.33593 14.7426L9.33594 14.7413Z" fill="#BC4848"/>
<path d="M16.1406 1.45215C12.7273 1.45215 9.94531 4.23427 9.94531 7.64743C9.94531 11.0606 12.7273 13.8329 16.1406 13.8329C19.5539 13.8329 22.3281 11.0606 22.3281 7.64743C22.3281 4.23427 19.5539 1.45215 16.1406 1.45215ZM15.6328 4.30173H16.6328V4.80763V5.16901H17.498H18.002V6.16899H17.498H15.2715V7.14356H18.002V10.1182H16.6328V10.4776V10.9814H15.6328V10.4776V10.1182H14.7754H14.2715V9.11823H14.7754H17.002V8.14354H14.2715V5.16901H15.6328V4.80763V4.30173Z" fill="#BC4848"/>
</svg>
