<svg width="16" height="16" viewBox="0 0 16 16" fill="none" xmlns="http://www.w3.org/2000/svg">
<path d="M12.667 4.66667H12.4003C12.1337 4.66667 11.9337 4.53333 11.8003 4.26667L11.0003 2.73333C10.8003 2.26667 10.3337 2 9.80033 2H6.13366C5.66699 2 5.20033 2.26667 4.93366 2.73333L4.20033 4.26667C4.06699 4.53333 3.86699 4.66667 3.60033 4.66667H3.33366C1.86699 4.66667 0.666992 5.86667 0.666992 7.33333V11.3333C0.666992 12.8 1.86699 14 3.33366 14H12.667C14.1337 14 15.3337 12.8 15.3337 11.3333V7.33333C15.3337 5.86667 14.1337 4.66667 12.667 4.66667ZM8.00033 11.3333C6.53366 11.3333 5.33366 10.1333 5.33366 8.66667C5.33366 7.2 6.53366 6 8.00033 6C9.46699 6 10.667 7.2 10.667 8.66667C10.667 10.1333 9.46699 11.3333 8.00033 11.3333Z" fill="#34B157"/>
</svg>
