<svg width="24" height="18" viewBox="0 0 24 18" fill="none" xmlns="http://www.w3.org/2000/svg">
<path d="M5.16403 17.7371C4.14275 17.7373 3.14435 17.4346 2.29512 16.8674C1.44588 16.3001 0.783966 15.4937 0.393097 14.5501C0.00222781 13.6066 -0.100034 12.5684 0.0992445 11.5667C0.298524 10.5651 0.790391 9.64503 1.51263 8.92296L6.84014 3.5965C7.80847 2.6281 9.12183 2.08403 10.4913 2.08398C11.8608 2.08394 13.1742 2.62791 14.1426 3.59624C15.111 4.56457 15.655 5.87793 15.6551 7.2474C15.6551 8.61687 15.1112 9.93027 14.1428 10.8987L13.5665 11.4753L12.0891 10.0009L12.671 9.41874C13.2457 8.84118 13.568 8.05935 13.5672 7.2446C13.5664 6.42986 13.2427 5.64864 12.667 5.07215C12.0808 4.51269 11.3016 4.20055 10.4912 4.20055C9.68089 4.20055 8.9017 4.51269 8.31547 5.07215L2.98859 10.3983C2.70284 10.6839 2.47616 11.023 2.32151 11.3963C2.16685 11.7695 2.08725 12.1696 2.08725 12.5736C2.08725 12.9777 2.16685 13.3777 2.32151 13.751C2.47616 14.1242 2.70284 14.4633 2.98859 14.749C3.57481 15.3084 4.35401 15.6206 5.16434 15.6206C5.97468 15.6206 6.75387 15.3084 7.34009 14.749L8.81595 16.225C8.33741 16.706 7.76825 17.0872 7.14141 17.3468C6.51457 17.6063 5.84248 17.739 5.16403 17.7371Z" fill="#868686"/>
<path d="M13.5127 15.6499C12.4914 15.6501 11.493 15.3475 10.6437 14.7802C9.79451 14.2129 9.1326 13.4065 8.74173 12.463C8.35086 11.5195 8.2486 10.4812 8.44788 9.47956C8.64716 8.47791 9.13902 7.55786 9.86126 6.8358L10.4379 6.25915L11.9138 7.73532L11.3371 8.31165C11.0514 8.59728 10.8248 8.93639 10.6702 9.30961C10.5156 9.68283 10.436 10.0829 10.436 10.4868C10.436 10.8908 10.5156 11.2908 10.6702 11.664C10.8248 12.0373 11.0514 12.3764 11.3371 12.662C11.9233 13.2215 12.7025 13.5336 13.5129 13.5336C14.3232 13.5336 15.1024 13.2215 15.6886 12.662C15.9599 12.3907 20.6238 7.72686 21.0161 7.33533C21.5922 6.75802 21.9157 5.97579 21.9157 5.16026C21.9157 4.34473 21.5922 3.5625 21.0161 2.98519C20.4299 2.42574 19.6507 2.11359 18.8404 2.11359C18.03 2.11359 17.2509 2.42574 16.6646 2.98519L15.1888 1.50912C16.1574 0.542199 17.4704 -0.000600553 18.839 4.98635e-07C20.2077 0.000601551 21.5201 0.544554 22.4879 1.51233C23.4558 2.4801 23.9998 3.79252 24.0004 5.16119C24.0011 6.52986 23.4583 7.8428 22.4915 8.8115C22.0986 9.20387 17.4366 13.8651 17.1655 14.1371C16.6869 14.6182 16.1176 14.9996 15.4906 15.2593C14.8636 15.519 14.1913 15.6517 13.5127 15.6499V15.6499Z" fill="#868686"/>
</svg>
