<svg width="22" height="22" viewBox="0 0 22 22" fill="none" xmlns="http://www.w3.org/2000/svg">
<path d="M1.77332 21.2524C1.90693 21.2529 2.03936 21.2272 2.16305 21.1767C2.2872 21.126 2.4001 21.0512 2.4953 20.9567L2.49602 20.956L20.9486 2.49522C21.1402 2.30348 21.2479 2.04345 21.2479 1.77235C21.2479 1.50124 21.1402 1.24121 20.9486 1.04948C20.7569 0.857739 20.497 0.75 20.2259 0.75C19.9548 0.75 19.6948 0.857738 19.5032 1.04948L1.05134 19.5096C1.05125 19.5096 1.05116 19.5097 1.05108 19.5098C0.955711 19.6045 0.880013 19.7171 0.828342 19.8412L1.05913 19.9373L0.828342 19.8412C0.776625 19.9654 0.75 20.0986 0.75 20.2332C0.75 20.3677 0.776625 20.5009 0.828342 20.6251L1.05897 20.529L0.828342 20.6251C0.88006 20.7493 0.955847 20.862 1.05133 20.9567C1.14653 21.0512 1.25943 21.126 1.38358 21.1767C1.50728 21.2272 1.6397 21.2529 1.77332 21.2524ZM1.77332 21.2524C1.77283 21.2524 1.77235 21.2524 1.77187 21.2524L1.77332 21.0024L1.77476 21.2524C1.77428 21.2524 1.7738 21.2524 1.77332 21.2524Z" fill="white" stroke="white" stroke-width="0.5"/>
<path d="M20.2265 21.2524C20.3601 21.2529 20.4926 21.2272 20.6163 21.1767C20.7404 21.126 20.8533 21.0512 20.9485 20.9567C21.044 20.862 21.1198 20.7493 21.1715 20.6251C21.2232 20.5009 21.2498 20.3677 21.2498 20.2332C21.2498 20.0986 21.2232 19.9654 21.1715 19.8412C21.1198 19.7172 21.0442 19.6045 20.9488 19.5098C20.9487 19.5098 20.9486 19.5097 20.9485 19.5096L2.49666 1.04948C2.30501 0.857738 2.04504 0.75 1.77396 0.75C1.50287 0.75 1.24291 0.857738 1.05125 1.04948C0.859601 1.24121 0.751953 1.50124 0.751953 1.77235C0.751953 2.04345 0.859601 2.30348 1.05125 2.49522L19.5038 20.956L19.5046 20.9567C19.5997 21.0512 19.7127 21.126 19.8368 21.1767C19.9605 21.2272 20.0929 21.2529 20.2265 21.2524ZM20.2265 21.2524C20.2261 21.2524 20.2256 21.2524 20.2251 21.2524L20.2265 21.0024L20.228 21.2524C20.2275 21.2524 20.227 21.2524 20.2265 21.2524Z" fill="white" stroke="white" stroke-width="0.5"/>
</svg>
