<svg width="24" height="24" viewBox="0 0 24 24" fill="none" xmlns="http://www.w3.org/2000/svg">
<path d="M15.7414 8.67428L15.7816 8.68768L15.8235 8.69413L21.0235 9.49413L21.0613 9.49994H21.0995C21.3377 9.49994 21.4472 9.6161 21.4895 9.7385C21.5377 9.87778 21.5142 10.0781 21.346 10.2464L21.3459 10.2464L21.3414 10.251L17.5434 14.149C17.3647 14.3289 17.2587 14.5636 17.1966 14.7654C17.1321 14.9752 17.0995 15.1997 17.0995 15.3999V15.4413L17.1063 15.4821L18.0044 20.8705C18.0281 21.0852 17.9323 21.2908 17.7829 21.413C17.6402 21.5297 17.4883 21.5462 17.3476 21.4658L17.3476 21.4658L17.3416 21.4624L12.658 18.8715C12.4473 18.7352 12.2089 18.6499 11.9495 18.6499C11.6901 18.6499 11.4517 18.7352 11.241 18.8715L6.55749 21.4624L6.55747 21.4624L6.55145 21.4658C6.23026 21.6494 5.7813 21.3868 5.88762 20.9084L5.89052 20.8953L5.89272 20.8821L6.78739 15.5141C6.86887 15.2258 6.80883 14.9413 6.7287 14.733C6.64251 14.5089 6.50591 14.3 6.35561 14.1489L2.57342 10.2672C2.45369 10.1143 2.42473 9.90545 2.48636 9.72056C2.54727 9.53783 2.68015 9.41875 2.86154 9.39608L2.86856 9.3952L2.87555 9.39413L8.04456 8.5989C8.33887 8.58521 8.58638 8.43945 8.75901 8.28409C8.93653 8.12432 9.0824 7.91342 9.16382 7.68703L11.4317 2.75695C11.5861 2.56189 11.7916 2.481 11.9698 2.48714C12.1468 2.49325 12.3305 2.585 12.4491 2.81714L14.7354 7.78732C14.9163 8.28723 15.3857 8.55572 15.7414 8.67428Z" stroke="#868686"/>
</svg>
