<svg width="17" height="16" viewBox="0 0 17 16" fill="none" xmlns="http://www.w3.org/2000/svg">
<g clip-path="url(#clip0_15_97)">
<path d="M16.2464 3.27934C16.2095 3.06644 16.1055 2.87091 15.9496 2.72134C15.7937 2.57177 15.594 2.47599 15.3797 2.44801C10.9237 1.85066 6.4078 1.85066 1.95173 2.44801C1.73753 2.47585 1.53787 2.5715 1.38193 2.72096C1.22599 2.87042 1.12196 3.06585 1.08506 3.27867C0.523729 6.40098 0.523729 9.59837 1.08506 12.7207C1.12193 12.9336 1.22593 13.1291 1.38186 13.2787C1.53779 13.4282 1.73748 13.524 1.95173 13.552C4.17773 13.8504 6.42115 14.0001 8.66706 14C10.9125 14 13.1555 13.8504 15.3811 13.552C15.5954 13.5241 15.7951 13.4284 15.951 13.2788C16.107 13.1292 16.211 12.9336 16.2477 12.7207C16.8083 9.59848 16.8078 6.40137 16.2464 3.27934ZM6.00039 10.0133V5.98734C6.0062 5.87029 6.04158 5.75662 6.10323 5.65695C6.16488 5.55728 6.25078 5.47486 6.35293 5.4174C6.45507 5.35994 6.57011 5.3293 6.6873 5.32836C6.80449 5.32742 6.92001 5.35619 7.02306 5.41201L10.9697 7.42467C11.0782 7.47667 11.1698 7.55827 11.2339 7.66007C11.298 7.76187 11.332 7.87971 11.332 8.00001C11.332 8.1203 11.298 8.23815 11.2339 8.33995C11.1698 8.44174 11.0782 8.52335 10.9697 8.57534L7.02306 10.588C6.92006 10.6438 6.8046 10.6726 6.68746 10.6717C6.57032 10.6708 6.45532 10.6402 6.35319 10.5828C6.25107 10.5254 6.16515 10.4431 6.10346 10.3435C6.04176 10.2439 6.00631 10.1303 6.00039 10.0133Z" fill="#268AFF"/>
</g>
<defs>
<clipPath id="clip0_15_97">
<rect width="16" height="16" fill="white" transform="translate(0.666992)"/>
</clipPath>
</defs>
</svg>
